<?xml version="1.0" standalone="no"?>
<!DOCTYPE svg PUBLIC "-//W3C//DTD SVG 20010904//EN"
 "http://www.w3.org/TR/2001/REC-SVG-20010904/DTD/svg10.dtd">
<svg version="1.0" xmlns="http://www.w3.org/2000/svg"
 width="93.000000pt" height="89.000000pt" viewBox="0 0 93.000000 89.000000"
 preserveAspectRatio="xMidYMid meet">

<g transform="translate(0.000000,89.000000) scale(0.100000,-0.100000)"
fill="#000000" stroke="none">
<path d="M246 754 c-13 -13 -16 -46 -16 -205 0 -149 -3 -189 -13 -189 -22 0
-67 -54 -78 -94 -14 -50 3 -97 48 -137 33 -28 41 -31 90 -27 41 4 60 11 83 33
16 16 32 36 35 46 3 10 21 20 42 24 118 22 229 127 254 241 8 34 18 56 29 59
30 10 71 61 77 98 7 47 -1 79 -33 116 -52 62 -146 60 -203 -5 -53 -60 -39
-154 31 -200 24 -16 28 -24 23 -49 -10 -55 -58 -118 -115 -152 -30 -18 -63
-33 -74 -33 -10 0 -34 18 -53 40 -19 22 -41 40 -49 40 -12 0 -14 32 -14 189 0
159 -3 192 -16 205 -8 9 -19 16 -24 16 -5 0 -16 -7 -24 -16z m452 -80 c43 -30
20 -104 -32 -104 -52 0 -78 52 -45 93 23 31 45 34 77 11z m-384 -400 c20 -20
20 -58 0 -78 -33 -34 -104 -8 -104 37 0 49 70 76 104 41z"/>
</g>
</svg>
