<svg width="26" height="24" viewBox="0 0 26 24" fill="none" xmlns="http://www.w3.org/2000/svg">
<path d="M23.6648 0.670783C23.263 0.747064 22.9197 1.00075 22.7072 1.35532L9.97485 19.5808L3.28551 10.9445C3.06418 10.5831 2.70636 10.3297 2.29161 10.2649L2.29131 10.2648C1.86829 10.1991 1.44582 10.3387 1.13309 10.6358C0.821749 10.9311 0.649519 11.3519 0.64708 11.7862L0.647079 11.7865C0.644984 12.2124 0.80656 12.6264 1.10212 12.9238L8.9271 23.0442C9.15534 23.3485 9.48621 23.5523 9.85425 23.6055L23.7306 1.01753M23.6648 0.670783L23.7306 1.01753M23.6648 0.670783C23.6647 0.670799 23.6646 0.670815 23.6645 0.67083L23.7306 1.01753M23.6648 0.670783C24.0725 0.593138 24.4863 0.708505 24.8047 0.977945M23.7306 1.01753C24.0296 0.960542 24.3363 1.04389 24.5767 1.24735M24.8047 0.977945L24.5767 1.24735M24.8047 0.977945C25.1213 1.24587 25.3139 1.63955 25.3475 2.05962M24.8047 0.977945C24.8047 0.977947 24.8047 0.977949 24.8047 0.977951L24.5767 1.24735M24.5767 1.24735L25.3475 2.05962M25.3475 2.05962C25.3475 2.05953 25.3475 2.05944 25.3475 2.05935L24.9957 2.08781L25.3475 2.05962ZM25.3475 2.05962C25.381 2.47411 25.2578 2.89014 24.9992 3.2093M25.3475 2.05962L24.7176 2.99617M24.9992 3.2093L25.0068 3.19843L24.7176 2.99617M24.9992 3.2093C24.996 3.21323 24.9928 3.21715 24.9896 3.22105L24.7176 2.99617M24.9992 3.2093L11.1637 22.9952L10.8732 22.7948M24.7176 2.99617L10.8732 22.7948M10.8732 22.7948L11.1624 22.9971L11.163 22.9962L10.8732 22.7948ZM10.2012 19.8731L9.98951 20.1761L9.76315 19.8839L10.2012 19.8731Z" fill="white" stroke="white" stroke-width="0.705882"/>
</svg>
