<svg width="33" height="34" viewBox="0 0 33 34" fill="none" xmlns="http://www.w3.org/2000/svg">
<path d="M1.05673 9.07607L1.05629 9.07656C0.933277 9.2126 0.852385 9.34329 0.805057 9.48162C0.758101 9.61887 0.75 9.74729 0.75 9.8651V32.028C0.75 32.3439 0.846186 32.6294 1.03652 32.8389C1.22885 33.0506 1.49969 33.1648 1.80611 33.1648H23.565C23.7249 33.1648 23.8765 33.1142 23.9992 33.0516C24.1224 32.9887 24.2338 32.9049 24.3136 32.8179L24.3144 32.817L31.5671 24.8387C31.7666 24.6192 31.8738 24.3836 31.8738 24.0497L31.8732 1.88676C31.8732 1.57084 31.7771 1.28535 31.5868 1.07588C31.3946 0.864226 31.1239 0.75 30.8177 0.75H9.05879C8.9056 0.75 8.7664 0.778451 8.63677 0.841746C8.50896 0.904146 8.40378 0.993928 8.30941 1.09774L1.05673 9.07607ZM28.3181 3.02295L23.1316 8.72896H18.005L23.1915 3.0235L28.3181 3.02295ZM10.9206 11.0018H14.45V14.0476H10.9206V11.0018ZM15.0729 8.72836L12.364 8.72886L17.5504 3.02349L20.2593 3.02299L15.0729 8.72836ZM9.49157 3.02287H14.6182L9.4317 8.72833H4.30504L9.49157 3.02287ZM2.86169 11.0018H8.80891V15.1844C8.80891 15.5003 8.90509 15.7859 9.09543 15.9953C9.28776 16.207 9.5586 16.3212 9.86502 16.3212H15.5061C15.8122 16.3212 16.083 16.2072 16.2754 15.9957C16.4658 15.7863 16.5622 15.5007 16.5622 15.1844V11.0018H22.5094V30.8917H2.86228L2.86169 11.0018ZM29.7616 23.5985L24.6206 29.2539V10.3166L29.7616 4.66115V23.5985Z" fill="white" stroke="white" stroke-width="0.5"/>
</svg>
