<svg width="39" height="37" viewBox="0 0 39 37" fill="none" xmlns="http://www.w3.org/2000/svg">
<mask id="path-1-outside-1_51_2197" maskUnits="userSpaceOnUse" x="0" y="-0.121582" width="39" height="37" fill="black">
<rect fill="white" y="-0.121582" width="39" height="37"/>
<path d="M24.2284 19.5012C25.6858 18.1844 27.6323 17.4533 29.6548 17.463C31.1035 17.4337 32.5299 17.8007 33.7601 18.52C34.9904 19.2393 35.9708 20.2793 36.5819 21.5131C36.7462 21.864 37.1818 22.0237 37.5558 21.8702C37.9297 21.7167 38.1009 21.3079 37.9381 20.9565C36.9037 18.7957 34.9207 17.1635 32.5044 16.4833C33.7109 15.5322 34.4017 14.1243 34.3876 12.6451C34.3876 9.98855 32.265 7.8272 29.6563 7.8272C28.6647 7.85116 27.7058 8.16462 26.9128 8.7245C26.1202 9.28435 25.5329 10.0623 25.2333 10.9502C24.3698 10.3203 23.3934 9.84096 22.3499 9.5348C23.5568 8.58366 24.2477 7.1758 24.2339 5.69631C24.2339 3.03977 22.1113 0.878418 19.5023 0.878418C16.8937 0.878418 14.771 3.03977 14.771 5.69631C14.757 7.1758 15.4481 8.58366 16.6548 9.5348C15.6104 9.84152 14.6328 10.3211 13.7682 10.9513C13.4689 10.0631 12.8816 9.2849 12.0887 8.72477C11.2958 8.16492 10.3366 7.85119 9.34492 7.8272C6.73625 7.8272 4.61363 9.98855 4.61363 12.6451C4.59958 14.1243 5.29039 15.5322 6.49678 16.4833C4.08052 17.1635 2.09753 18.7957 1.06316 20.9565C0.983732 21.1254 0.97943 21.3171 1.05083 21.4892C1.12224 21.6612 1.26361 21.7997 1.4437 21.8734C1.62407 21.9475 1.82825 21.951 2.01121 21.8834C2.19416 21.8158 2.34099 21.6828 2.41927 21.5131C3.03036 20.2793 4.01083 19.2393 5.24106 18.52C6.47128 17.8007 7.89767 17.4336 9.34637 17.463C11.3709 17.4525 13.3195 18.185 14.7768 19.5045C14.7958 20.943 15.4808 22.3024 16.6537 23.2282C15.6095 23.535 14.6323 24.0148 13.7679 24.6447C13.4683 23.7569 12.8813 22.9786 12.0884 22.419C11.2954 21.8592 10.3365 21.5455 9.3449 21.5217C6.73623 21.5217 4.61361 23.6831 4.61361 26.3396C4.59956 27.8191 5.29066 29.2273 6.49764 30.1784C4.08197 30.8586 2.09927 32.4897 1.06351 34.6492C0.983793 34.8183 0.978918 35.01 1.05003 35.1824C1.12115 35.3547 1.26252 35.4932 1.4429 35.5675C1.62299 35.6415 1.82745 35.6453 2.01069 35.5777C2.19365 35.5101 2.34076 35.3768 2.41876 35.2072C3.03071 33.9738 4.01142 32.9341 5.24135 32.2151C6.47158 31.4964 7.89796 31.129 9.34637 31.1581C10.7951 31.1288 12.2215 31.4961 13.4517 32.2151C14.6816 32.9341 15.6623 33.9736 16.274 35.2069C16.438 35.5586 16.8745 35.7185 17.2487 35.5645C17.6229 35.4107 17.7932 35.0009 17.6295 34.6495C16.5934 32.4892 14.6099 30.8573 12.193 30.1777C13.3994 29.2265 14.09 27.8189 14.0762 26.3397C14.0762 26.3088 14.0721 26.2791 14.0716 26.2484C15.5349 24.9386 17.4789 24.208 19.5006 24.208C21.5219 24.2077 23.4662 24.9381 24.9295 26.2476C24.929 26.2786 24.925 26.3087 24.925 26.3397C24.9112 27.8189 25.6017 29.2265 26.8081 30.1776C24.3913 30.8573 22.4078 32.4892 21.3716 34.6495C21.2079 35.0009 21.3782 35.4108 21.7524 35.5645C22.1267 35.7185 22.5631 35.5586 22.7271 35.2069C23.3388 33.9735 24.3195 32.934 25.5494 32.2151C26.7797 31.4961 28.206 31.1288 29.6547 31.1581C31.1031 31.129 32.5295 31.4963 33.7598 32.2151C34.9897 32.9341 35.9704 33.9738 36.5824 35.2071C36.7464 35.5586 37.1828 35.7185 37.557 35.5645C37.9313 35.4105 38.1016 35.0006 37.9376 34.6492C36.9018 32.4898 34.9191 30.8587 32.5034 30.1784C33.7104 29.2273 34.4015 27.8191 34.3875 26.3396C34.3875 23.6831 32.2649 21.5218 29.6562 21.5218C28.6648 21.5455 27.7059 21.8589 26.9133 22.4188C26.1204 22.9784 25.5334 23.756 25.2334 24.6439C24.3703 24.014 23.3941 23.5347 22.3509 23.2282C23.5246 22.3019 24.2102 20.9412 24.2283 19.5013L24.2284 19.5012ZM9.34499 29.7675C7.55214 29.7675 6.09368 28.2296 6.09368 26.3394C6.09368 24.449 7.55214 22.9111 9.34499 22.9111C11.0231 22.9111 12.4079 24.2587 12.5785 25.9813C12.5909 26.1095 12.5966 26.2237 12.5966 26.3395C12.5963 28.2299 11.1379 29.7676 9.345 29.7676L9.34499 29.7675ZM29.6565 22.9111C31.4493 22.9111 32.9078 24.4491 32.9078 26.3394C32.9078 28.2299 31.4493 29.7675 29.6565 29.7675C27.8636 29.7675 26.4051 28.2296 26.4051 26.3394C26.4051 26.2239 26.4109 26.11 26.4215 25.9974C26.5932 24.2592 27.978 22.9111 29.6564 22.9111L29.6565 22.9111ZM29.6565 9.21653C31.4493 9.21653 32.9078 10.7545 32.9078 12.6448C32.9078 14.5352 31.4493 16.0731 29.6565 16.0731C27.8636 16.0731 26.4051 14.5352 26.4051 12.6448C26.4051 12.5298 26.4109 12.4165 26.4215 12.3045C26.593 10.5646 27.978 9.21677 29.6564 9.21677L29.6565 9.21653ZM19.5022 2.26755C21.295 2.26755 22.7541 3.80549 22.7541 5.69585C22.7541 7.58621 21.295 9.12416 19.5022 9.12416C17.7093 9.12416 16.2509 7.58621 16.2509 5.69585C16.2506 3.80542 17.709 2.26755 19.5022 2.26755ZM19.5005 10.514C21.5238 10.5043 23.4716 11.2362 24.9295 12.5538C24.9289 12.5845 24.9249 12.6142 24.9249 12.6449C24.9111 14.1241 25.6016 15.5319 26.808 16.4831C25.7883 16.7817 24.8319 17.2457 23.9826 17.854C23.7067 16.9293 23.1231 16.112 22.3168 15.5214C21.5104 14.9312 20.5242 14.5986 19.5019 14.5724C18.4799 14.5986 17.4931 14.9314 16.6867 15.5222C15.8807 16.1128 15.2968 16.9306 15.0212 17.8554C14.1712 17.246 13.2143 16.7814 12.1931 16.4825C13.3993 15.5314 14.0898 14.1238 14.076 12.6449C14.076 12.6144 14.072 12.5848 14.0714 12.5546C15.5296 11.2376 17.477 10.5056 19.5004 10.5139L19.5005 10.514ZM9.34474 9.21681C11.0231 9.21681 12.408 10.5646 12.5783 12.2873C12.5903 12.4162 12.5964 12.5299 12.5964 12.6449C12.5964 14.5353 11.1379 16.0732 9.34504 16.0732C7.55219 16.0732 6.09373 14.5352 6.09373 12.6449C6.09344 10.7547 7.55189 9.21677 9.34475 9.21677L9.34474 9.21681ZM19.5159 22.8177C17.7006 22.8088 16.2503 21.2752 16.2503 19.3904C16.2503 17.5 17.7087 15.9621 19.5016 15.9621C21.2944 15.9621 22.7535 17.5 22.7535 19.3904C22.7535 21.2754 21.3021 22.8093 19.5159 22.8177Z"/>
</mask>
<path d="M24.2284 19.5012C25.6858 18.1844 27.6323 17.4533 29.6548 17.463C31.1035 17.4337 32.5299 17.8007 33.7601 18.52C34.9904 19.2393 35.9708 20.2793 36.5819 21.5131C36.7462 21.864 37.1818 22.0237 37.5558 21.8702C37.9297 21.7167 38.1009 21.3079 37.9381 20.9565C36.9037 18.7957 34.9207 17.1635 32.5044 16.4833C33.7109 15.5322 34.4017 14.1243 34.3876 12.6451C34.3876 9.98855 32.265 7.8272 29.6563 7.8272C28.6647 7.85116 27.7058 8.16462 26.9128 8.7245C26.1202 9.28435 25.5329 10.0623 25.2333 10.9502C24.3698 10.3203 23.3934 9.84096 22.3499 9.5348C23.5568 8.58366 24.2477 7.1758 24.2339 5.69631C24.2339 3.03977 22.1113 0.878418 19.5023 0.878418C16.8937 0.878418 14.771 3.03977 14.771 5.69631C14.757 7.1758 15.4481 8.58366 16.6548 9.5348C15.6104 9.84152 14.6328 10.3211 13.7682 10.9513C13.4689 10.0631 12.8816 9.2849 12.0887 8.72477C11.2958 8.16492 10.3366 7.85119 9.34492 7.8272C6.73625 7.8272 4.61363 9.98855 4.61363 12.6451C4.59958 14.1243 5.29039 15.5322 6.49678 16.4833C4.08052 17.1635 2.09753 18.7957 1.06316 20.9565C0.983732 21.1254 0.97943 21.3171 1.05083 21.4892C1.12224 21.6612 1.26361 21.7997 1.4437 21.8734C1.62407 21.9475 1.82825 21.951 2.01121 21.8834C2.19416 21.8158 2.34099 21.6828 2.41927 21.5131C3.03036 20.2793 4.01083 19.2393 5.24106 18.52C6.47128 17.8007 7.89767 17.4336 9.34637 17.463C11.3709 17.4525 13.3195 18.185 14.7768 19.5045C14.7958 20.943 15.4808 22.3024 16.6537 23.2282C15.6095 23.535 14.6323 24.0148 13.7679 24.6447C13.4683 23.7569 12.8813 22.9786 12.0884 22.419C11.2954 21.8592 10.3365 21.5455 9.3449 21.5217C6.73623 21.5217 4.61361 23.6831 4.61361 26.3396C4.59956 27.8191 5.29066 29.2273 6.49764 30.1784C4.08197 30.8586 2.09927 32.4897 1.06351 34.6492C0.983793 34.8183 0.978918 35.01 1.05003 35.1824C1.12115 35.3547 1.26252 35.4932 1.4429 35.5675C1.62299 35.6415 1.82745 35.6453 2.01069 35.5777C2.19365 35.5101 2.34076 35.3768 2.41876 35.2072C3.03071 33.9738 4.01142 32.9341 5.24135 32.2151C6.47158 31.4964 7.89796 31.129 9.34637 31.1581C10.7951 31.1288 12.2215 31.4961 13.4517 32.2151C14.6816 32.9341 15.6623 33.9736 16.274 35.2069C16.438 35.5586 16.8745 35.7185 17.2487 35.5645C17.6229 35.4107 17.7932 35.0009 17.6295 34.6495C16.5934 32.4892 14.6099 30.8573 12.193 30.1777C13.3994 29.2265 14.09 27.8189 14.0762 26.3397C14.0762 26.3088 14.0721 26.2791 14.0716 26.2484C15.5349 24.9386 17.4789 24.208 19.5006 24.208C21.5219 24.2077 23.4662 24.9381 24.9295 26.2476C24.929 26.2786 24.925 26.3087 24.925 26.3397C24.9112 27.8189 25.6017 29.2265 26.8081 30.1776C24.3913 30.8573 22.4078 32.4892 21.3716 34.6495C21.2079 35.0009 21.3782 35.4108 21.7524 35.5645C22.1267 35.7185 22.5631 35.5586 22.7271 35.2069C23.3388 33.9735 24.3195 32.934 25.5494 32.2151C26.7797 31.4961 28.206 31.1288 29.6547 31.1581C31.1031 31.129 32.5295 31.4963 33.7598 32.2151C34.9897 32.9341 35.9704 33.9738 36.5824 35.2071C36.7464 35.5586 37.1828 35.7185 37.557 35.5645C37.9313 35.4105 38.1016 35.0006 37.9376 34.6492C36.9018 32.4898 34.9191 30.8587 32.5034 30.1784C33.7104 29.2273 34.4015 27.8191 34.3875 26.3396C34.3875 23.6831 32.2649 21.5218 29.6562 21.5218C28.6648 21.5455 27.7059 21.8589 26.9133 22.4188C26.1204 22.9784 25.5334 23.756 25.2334 24.6439C24.3703 24.014 23.3941 23.5347 22.3509 23.2282C23.5246 22.3019 24.2102 20.9412 24.2283 19.5013L24.2284 19.5012ZM9.34499 29.7675C7.55214 29.7675 6.09368 28.2296 6.09368 26.3394C6.09368 24.449 7.55214 22.9111 9.34499 22.9111C11.0231 22.9111 12.4079 24.2587 12.5785 25.9813C12.5909 26.1095 12.5966 26.2237 12.5966 26.3395C12.5963 28.2299 11.1379 29.7676 9.345 29.7676L9.34499 29.7675ZM29.6565 22.9111C31.4493 22.9111 32.9078 24.4491 32.9078 26.3394C32.9078 28.2299 31.4493 29.7675 29.6565 29.7675C27.8636 29.7675 26.4051 28.2296 26.4051 26.3394C26.4051 26.2239 26.4109 26.11 26.4215 25.9974C26.5932 24.2592 27.978 22.9111 29.6564 22.9111L29.6565 22.9111ZM29.6565 9.21653C31.4493 9.21653 32.9078 10.7545 32.9078 12.6448C32.9078 14.5352 31.4493 16.0731 29.6565 16.0731C27.8636 16.0731 26.4051 14.5352 26.4051 12.6448C26.4051 12.5298 26.4109 12.4165 26.4215 12.3045C26.593 10.5646 27.978 9.21677 29.6564 9.21677L29.6565 9.21653ZM19.5022 2.26755C21.295 2.26755 22.7541 3.80549 22.7541 5.69585C22.7541 7.58621 21.295 9.12416 19.5022 9.12416C17.7093 9.12416 16.2509 7.58621 16.2509 5.69585C16.2506 3.80542 17.709 2.26755 19.5022 2.26755ZM19.5005 10.514C21.5238 10.5043 23.4716 11.2362 24.9295 12.5538C24.9289 12.5845 24.9249 12.6142 24.9249 12.6449C24.9111 14.1241 25.6016 15.5319 26.808 16.4831C25.7883 16.7817 24.8319 17.2457 23.9826 17.854C23.7067 16.9293 23.1231 16.112 22.3168 15.5214C21.5104 14.9312 20.5242 14.5986 19.5019 14.5724C18.4799 14.5986 17.4931 14.9314 16.6867 15.5222C15.8807 16.1128 15.2968 16.9306 15.0212 17.8554C14.1712 17.246 13.2143 16.7814 12.1931 16.4825C13.3993 15.5314 14.0898 14.1238 14.076 12.6449C14.076 12.6144 14.072 12.5848 14.0714 12.5546C15.5296 11.2376 17.477 10.5056 19.5004 10.5139L19.5005 10.514ZM9.34474 9.21681C11.0231 9.21681 12.408 10.5646 12.5783 12.2873C12.5903 12.4162 12.5964 12.5299 12.5964 12.6449C12.5964 14.5353 11.1379 16.0732 9.34504 16.0732C7.55219 16.0732 6.09373 14.5352 6.09373 12.6449C6.09344 10.7547 7.55189 9.21677 9.34475 9.21677L9.34474 9.21681ZM19.5159 22.8177C17.7006 22.8088 16.2503 21.2752 16.2503 19.3904C16.2503 17.5 17.7087 15.9621 19.5016 15.9621C21.2944 15.9621 22.7535 17.5 22.7535 19.3904C22.7535 21.2754 21.3021 22.8093 19.5159 22.8177Z" fill="white"/>
<path d="M24.2284 19.5012C25.6858 18.1844 27.6323 17.4533 29.6548 17.463C31.1035 17.4337 32.5299 17.8007 33.7601 18.52C34.9904 19.2393 35.9708 20.2793 36.5819 21.5131C36.7462 21.864 37.1818 22.0237 37.5558 21.8702C37.9297 21.7167 38.1009 21.3079 37.9381 20.9565C36.9037 18.7957 34.9207 17.1635 32.5044 16.4833C33.7109 15.5322 34.4017 14.1243 34.3876 12.6451C34.3876 9.98855 32.265 7.8272 29.6563 7.8272C28.6647 7.85116 27.7058 8.16462 26.9128 8.7245C26.1202 9.28435 25.5329 10.0623 25.2333 10.9502C24.3698 10.3203 23.3934 9.84096 22.3499 9.5348C23.5568 8.58366 24.2477 7.1758 24.2339 5.69631C24.2339 3.03977 22.1113 0.878418 19.5023 0.878418C16.8937 0.878418 14.771 3.03977 14.771 5.69631C14.757 7.1758 15.4481 8.58366 16.6548 9.5348C15.6104 9.84152 14.6328 10.3211 13.7682 10.9513C13.4689 10.0631 12.8816 9.2849 12.0887 8.72477C11.2958 8.16492 10.3366 7.85119 9.34492 7.8272C6.73625 7.8272 4.61363 9.98855 4.61363 12.6451C4.59958 14.1243 5.29039 15.5322 6.49678 16.4833C4.08052 17.1635 2.09753 18.7957 1.06316 20.9565C0.983732 21.1254 0.97943 21.3171 1.05083 21.4892C1.12224 21.6612 1.26361 21.7997 1.4437 21.8734C1.62407 21.9475 1.82825 21.951 2.01121 21.8834C2.19416 21.8158 2.34099 21.6828 2.41927 21.5131C3.03036 20.2793 4.01083 19.2393 5.24106 18.52C6.47128 17.8007 7.89767 17.4336 9.34637 17.463C11.3709 17.4525 13.3195 18.185 14.7768 19.5045C14.7958 20.943 15.4808 22.3024 16.6537 23.2282C15.6095 23.535 14.6323 24.0148 13.7679 24.6447C13.4683 23.7569 12.8813 22.9786 12.0884 22.419C11.2954 21.8592 10.3365 21.5455 9.3449 21.5217C6.73623 21.5217 4.61361 23.6831 4.61361 26.3396C4.59956 27.8191 5.29066 29.2273 6.49764 30.1784C4.08197 30.8586 2.09927 32.4897 1.06351 34.6492C0.983793 34.8183 0.978918 35.01 1.05003 35.1824C1.12115 35.3547 1.26252 35.4932 1.4429 35.5675C1.62299 35.6415 1.82745 35.6453 2.01069 35.5777C2.19365 35.5101 2.34076 35.3768 2.41876 35.2072C3.03071 33.9738 4.01142 32.9341 5.24135 32.2151C6.47158 31.4964 7.89796 31.129 9.34637 31.1581C10.7951 31.1288 12.2215 31.4961 13.4517 32.2151C14.6816 32.9341 15.6623 33.9736 16.274 35.2069C16.438 35.5586 16.8745 35.7185 17.2487 35.5645C17.6229 35.4107 17.7932 35.0009 17.6295 34.6495C16.5934 32.4892 14.6099 30.8573 12.193 30.1777C13.3994 29.2265 14.09 27.8189 14.0762 26.3397C14.0762 26.3088 14.0721 26.2791 14.0716 26.2484C15.5349 24.9386 17.4789 24.208 19.5006 24.208C21.5219 24.2077 23.4662 24.9381 24.9295 26.2476C24.929 26.2786 24.925 26.3087 24.925 26.3397C24.9112 27.8189 25.6017 29.2265 26.8081 30.1776C24.3913 30.8573 22.4078 32.4892 21.3716 34.6495C21.2079 35.0009 21.3782 35.4108 21.7524 35.5645C22.1267 35.7185 22.5631 35.5586 22.7271 35.2069C23.3388 33.9735 24.3195 32.934 25.5494 32.2151C26.7797 31.4961 28.206 31.1288 29.6547 31.1581C31.1031 31.129 32.5295 31.4963 33.7598 32.2151C34.9897 32.9341 35.9704 33.9738 36.5824 35.2071C36.7464 35.5586 37.1828 35.7185 37.557 35.5645C37.9313 35.4105 38.1016 35.0006 37.9376 34.6492C36.9018 32.4898 34.9191 30.8587 32.5034 30.1784C33.7104 29.2273 34.4015 27.8191 34.3875 26.3396C34.3875 23.6831 32.2649 21.5218 29.6562 21.5218C28.6648 21.5455 27.7059 21.8589 26.9133 22.4188C26.1204 22.9784 25.5334 23.756 25.2334 24.6439C24.3703 24.014 23.3941 23.5347 22.3509 23.2282C23.5246 22.3019 24.2102 20.9412 24.2283 19.5013L24.2284 19.5012ZM9.34499 29.7675C7.55214 29.7675 6.09368 28.2296 6.09368 26.3394C6.09368 24.449 7.55214 22.9111 9.34499 22.9111C11.0231 22.9111 12.4079 24.2587 12.5785 25.9813C12.5909 26.1095 12.5966 26.2237 12.5966 26.3395C12.5963 28.2299 11.1379 29.7676 9.345 29.7676L9.34499 29.7675ZM29.6565 22.9111C31.4493 22.9111 32.9078 24.4491 32.9078 26.3394C32.9078 28.2299 31.4493 29.7675 29.6565 29.7675C27.8636 29.7675 26.4051 28.2296 26.4051 26.3394C26.4051 26.2239 26.4109 26.11 26.4215 25.9974C26.5932 24.2592 27.978 22.9111 29.6564 22.9111L29.6565 22.9111ZM29.6565 9.21653C31.4493 9.21653 32.9078 10.7545 32.9078 12.6448C32.9078 14.5352 31.4493 16.0731 29.6565 16.0731C27.8636 16.0731 26.4051 14.5352 26.4051 12.6448C26.4051 12.5298 26.4109 12.4165 26.4215 12.3045C26.593 10.5646 27.978 9.21677 29.6564 9.21677L29.6565 9.21653ZM19.5022 2.26755C21.295 2.26755 22.7541 3.80549 22.7541 5.69585C22.7541 7.58621 21.295 9.12416 19.5022 9.12416C17.7093 9.12416 16.2509 7.58621 16.2509 5.69585C16.2506 3.80542 17.709 2.26755 19.5022 2.26755ZM19.5005 10.514C21.5238 10.5043 23.4716 11.2362 24.9295 12.5538C24.9289 12.5845 24.9249 12.6142 24.9249 12.6449C24.9111 14.1241 25.6016 15.5319 26.808 16.4831C25.7883 16.7817 24.8319 17.2457 23.9826 17.854C23.7067 16.9293 23.1231 16.112 22.3168 15.5214C21.5104 14.9312 20.5242 14.5986 19.5019 14.5724C18.4799 14.5986 17.4931 14.9314 16.6867 15.5222C15.8807 16.1128 15.2968 16.9306 15.0212 17.8554C14.1712 17.246 13.2143 16.7814 12.1931 16.4825C13.3993 15.5314 14.0898 14.1238 14.076 12.6449C14.076 12.6144 14.072 12.5848 14.0714 12.5546C15.5296 11.2376 17.477 10.5056 19.5004 10.5139L19.5005 10.514ZM9.34474 9.21681C11.0231 9.21681 12.408 10.5646 12.5783 12.2873C12.5903 12.4162 12.5964 12.5299 12.5964 12.6449C12.5964 14.5353 11.1379 16.0732 9.34504 16.0732C7.55219 16.0732 6.09373 14.5352 6.09373 12.6449C6.09344 10.7547 7.55189 9.21677 9.34475 9.21677L9.34474 9.21681ZM19.5159 22.8177C17.7006 22.8088 16.2503 21.2752 16.2503 19.3904C16.2503 17.5 17.7087 15.9621 19.5016 15.9621C21.2944 15.9621 22.7535 17.5 22.7535 19.3904C22.7535 21.2754 21.3021 22.8093 19.5159 22.8177Z" stroke="white" stroke-width="0.853661" mask="url(#path-1-outside-1_51_2197)"/>
</svg>
