<svg width="18" height="38" viewBox="0 0 18 38" fill="none" xmlns="http://www.w3.org/2000/svg">
<path d="M17.5253 37.1231C17.4465 37.2097 17.3545 37.2831 17.251 37.3384C16.8962 37.5295 16.4705 37.4812 16.1523 37.2139L8.78283 31.0129L2.04642 37.076C1.73556 37.356 1.30337 37.4112 0.936872 37.2178C0.57001 37.0245 0.33438 36.6177 0.331461 36.1728L0.102756 1.29063C0.0985882 0.655053 0.563074 0.144095 1.14101 0.148501L16.5439 0.270709C17.1217 0.275292 17.5929 0.793673 17.5972 1.42944L17.8255 36.3122C17.8279 36.6225 17.7165 36.9126 17.5248 37.1234L17.5253 37.1231ZM2.40754 33.7576L8.08005 28.6523C8.45264 28.3169 8.98926 28.3102 9.37727 28.6366L15.7191 33.9728L15.5132 2.56349L2.2017 2.4584L2.40754 33.7576ZM11.2279 10.0969C10.6126 10.7738 9.79097 11.1431 8.91419 11.1361C8.03721 11.1294 7.21046 10.7468 6.5862 10.0601C5.96214 9.3732 5.61458 8.46394 5.60824 7.49943C5.60191 6.5345 5.9376 5.63066 6.5533 4.95336C7.16861 4.27648 7.99024 3.90723 8.86703 3.91416C9.74381 3.9211 10.5702 4.30326 11.1948 4.9904C11.8195 5.67754 12.1666 6.58679 12.173 7.5513C12.1793 8.51582 11.8434 9.41985 11.2279 10.0969ZM8.04345 6.59263C7.82034 6.83807 7.69812 7.16622 7.70062 7.5164C7.70329 7.86638 7.82869 8.19609 8.05526 8.44532C8.28161 8.69432 8.58152 8.83289 8.89984 8.8356C9.53596 8.84085 10.0863 8.23422 10.0819 7.53529C10.0792 7.1853 9.95344 6.85518 9.72691 6.60599C9.50056 6.35699 9.20084 6.21822 8.88285 6.21546C8.56432 6.21335 8.26657 6.34718 8.04348 6.59259L8.04345 6.59263Z" fill="white"/>
</svg>
